<svg xmlns="http://www.w3.org/2000/svg" width="96" height="96" viewBox="0 0 96 96" role="img" aria-labelledby="title desc">
  <title id="title">Project icon — Personal Task Tracker</title>
  <desc id="desc">Compact Eisenhower Matrix icon with four priority quadrants.</desc>
  <defs>
    <linearGradient id="card" x1="8" y1="8" x2="88" y2="88" gradientUnits="userSpaceOnUse">
      <stop offset="0" stop-color="#ffffff"/>
      <stop offset="1" stop-color="#f8fafc"/>
    </linearGradient>
    <linearGradient id="spark" x1="24" y1="18" x2="78" y2="82" gradientUnits="userSpaceOnUse">
      <stop offset="0" stop-color="#f97316"/>
      <stop offset="0.52" stop-color="#7c3aed"/>
      <stop offset="1" stop-color="#2563eb"/>
    </linearGradient>
    <filter id="softShadow" x="-25%" y="-25%" width="150%" height="150%">
      <feDropShadow dx="0" dy="8" stdDeviation="8" flood-color="#111827" flood-opacity="0.18"/>
    </filter>
  </defs>
  <rect x="8" y="8" width="80" height="80" rx="24" fill="url(#card)" filter="url(#softShadow)"/>
  <rect x="22" y="22" width="22" height="22" rx="7" fill="#fee2e2"/>
  <rect x="52" y="22" width="22" height="22" rx="7" fill="#dcfce7"/>
  <rect x="22" y="52" width="22" height="22" rx="7" fill="#fef3c7"/>
  <rect x="52" y="52" width="22" height="22" rx="7" fill="#e0e7ff"/>
  <path d="M48 19v58M19 48h58" stroke="#111827" stroke-width="4.8" stroke-linecap="round" opacity="0.86"/>
  <circle cx="33" cy="33" r="4.2" fill="#ef4444"/>
  <circle cx="63" cy="33" r="4.2" fill="#22c55e"/>
  <circle cx="33" cy="63" r="4.2" fill="#f59e0b"/>
  <circle cx="63" cy="63" r="4.2" fill="#6366f1"/>
  <path d="M69 76c-9-2-15-8-16-17" fill="none" stroke="url(#spark)" stroke-width="4.2" stroke-linecap="round"/>
</svg>
